<svg id="visual" viewBox="0 0 1000 250" width="1000" height="250" xmlns="http://www.w3.org/2000/svg" xmlns:xlink="http://www.w3.org/1999/xlink" version="1.1"><path d="M0 121L23.8 112.7C47.7 104.3 95.3 87.7 143 80.7C190.7 73.7 238.3 76.3 286 81.8C333.7 87.3 381.3 95.7 428.8 102.7C476.3 109.7 523.7 115.3 571.2 107.8C618.7 100.3 666.3 79.7 714 72.7C761.7 65.7 809.3 72.3 857 74.5C904.7 76.7 952.3 74.3 976.2 73.2L1000 72L1000 251L976.2 251C952.3 251 904.7 251 857 251C809.3 251 761.7 251 714 251C666.3 251 618.7 251 571.2 251C523.7 251 476.3 251 428.8 251C381.3 251 333.7 251 286 251C238.3 251 190.7 251 143 251C95.3 251 47.7 251 23.8 251L0 251Z" fill="#e4e4e4"></path><path d="M0 102L23.8 107.3C47.7 112.7 95.3 123.3 143 126.5C190.7 129.7 238.3 125.3 286 120.5C333.7 115.7 381.3 110.3 428.8 104.2C476.3 98 523.7 91 571.2 89.2C618.7 87.3 666.3 90.7 714 91.7C761.7 92.7 809.3 91.3 857 95.3C904.7 99.3 952.3 108.7 976.2 113.3L1000 118L1000 251L976.2 251C952.3 251 904.7 251 857 251C809.3 251 761.7 251 714 251C666.3 251 618.7 251 571.2 251C523.7 251 476.3 251 428.8 251C381.3 251 333.7 251 286 251C238.3 251 190.7 251 143 251C95.3 251 47.7 251 23.8 251L0 251Z" fill="#eaeaea"></path><path d="M0 122L23.8 130.7C47.7 139.3 95.3 156.7 143 158.3C190.7 160 238.3 146 286 145C333.7 144 381.3 156 428.8 156.2C476.3 156.3 523.7 144.7 571.2 139.5C618.7 134.3 666.3 135.7 714 141C761.7 146.3 809.3 155.7 857 157.8C904.7 160 952.3 155 976.2 152.5L1000 150L1000 251L976.2 251C952.3 251 904.7 251 857 251C809.3 251 761.7 251 714 251C666.3 251 618.7 251 571.2 251C523.7 251 476.3 251 428.8 251C381.3 251 333.7 251 286 251C238.3 251 190.7 251 143 251C95.3 251 47.7 251 23.8 251L0 251Z" fill="#f1f1f1"></path><path d="M0 179L23.8 176.7C47.7 174.3 95.3 169.7 143 164.8C190.7 160 238.3 155 286 154.3C333.7 153.7 381.3 157.3 428.8 165.2C476.3 173 523.7 185 571.2 184C618.7 183 666.3 169 714 162.8C761.7 156.7 809.3 158.3 857 163C904.7 167.7 952.3 175.3 976.2 179.2L1000 183L1000 251L976.2 251C952.3 251 904.7 251 857 251C809.3 251 761.7 251 714 251C666.3 251 618.7 251 571.2 251C523.7 251 476.3 251 428.8 251C381.3 251 333.7 251 286 251C238.3 251 190.7 251 143 251C95.3 251 47.7 251 23.8 251L0 251Z" fill="#f8f8f8"></path><path d="M0 228L23.8 224.5C47.7 221 95.3 214 143 212.2C190.7 210.3 238.3 213.7 286 210.3C333.7 207 381.3 197 428.8 192.5C476.3 188 523.7 189 571.2 189.5C618.7 190 666.3 190 714 190.3C761.7 190.7 809.3 191.3 857 193.7C904.7 196 952.3 200 976.2 202L1000 204L1000 251L976.2 251C952.3 251 904.7 251 857 251C809.3 251 761.7 251 714 251C666.3 251 618.7 251 571.2 251C523.7 251 476.3 251 428.8 251C381.3 251 333.7 251 286 251C238.3 251 190.7 251 143 251C95.3 251 47.7 251 23.8 251L0 251Z" fill="#ffffff"></path></svg>