<svg id="visual" viewBox="0 0 1000 250" width="1000" height="250" xmlns="http://www.w3.org/2000/svg" xmlns:xlink="http://www.w3.org/1999/xlink" version="1.1"><path d="M0 99L20.8 102.7C41.7 106.3 83.3 113.7 125 120.3C166.7 127 208.3 133 250 126.3C291.7 119.7 333.3 100.3 375 84.8C416.7 69.3 458.3 57.7 500 53.5C541.7 49.3 583.3 52.7 625 61.3C666.7 70 708.3 84 750 88C791.7 92 833.3 86 875 79.2C916.7 72.3 958.3 64.7 979.2 60.8L1000 57L1000 0L979.2 0C958.3 0 916.7 0 875 0C833.3 0 791.7 0 750 0C708.3 0 666.7 0 625 0C583.3 0 541.7 0 500 0C458.3 0 416.7 0 375 0C333.3 0 291.7 0 250 0C208.3 0 166.7 0 125 0C83.3 0 41.7 0 20.8 0L0 0Z" fill="#ffffff" stroke-linecap="round" stroke-linejoin="miter"></path></svg>